<?xml version="1.0" encoding="UTF-8" standalone="no"?>
<!DOCTYPE svg PUBLIC "-//W3C//DTD SVG 1.1//EN" "http://www.w3.org/Graphics/SVG/1.1/DTD/svg11.dtd">
<svg width="100%" height="100%" viewBox="0 0 155 155" version="1.1" xmlns="http://www.w3.org/2000/svg" xmlns:xlink="http://www.w3.org/1999/xlink" xml:space="preserve" xmlns:serif="http://www.serif.com/" style="fill-rule:evenodd;clip-rule:evenodd;stroke-linejoin:round;stroke-miterlimit:2;">
    <g transform="matrix(1,0,0,1,-236.401993,-349.044006)">
        <g>
            <path d="M391.077,426.383C391.077,469.095 356.452,503.72 313.74,503.72C271.027,503.72 236.402,469.095 236.402,426.383C236.402,383.669 271.027,349.044 313.74,349.044C356.452,349.044 391.077,383.669 391.077,426.383Z" style="fill:rgb(24,87,136);fill-rule:nonzero;"/>
            <path d="M363.132,443.877C363.132,457.873 351.789,469.218 337.791,469.218C323.794,469.218 312.449,457.873 312.449,443.877C312.449,429.882 323.794,418.535 337.791,418.535C351.789,418.535 363.132,429.882 363.132,443.877Z" style="fill:rgb(138,96,60);fill-rule:nonzero;"/>
            <path d="M315.031,443.974C315.031,457.97 303.687,469.315 289.688,469.315C275.694,469.315 264.347,457.97 264.347,443.974C264.347,429.978 275.694,418.631 289.688,418.631C303.687,418.631 315.031,429.978 315.031,443.974Z" style="fill:rgb(138,96,60);fill-rule:nonzero;"/>
            <path d="M308.472,464.624C308.466,464.632 308.458,464.646 308.453,464.651C308.458,464.644 308.466,464.632 308.468,464.621C308.468,464.621 308.472,464.621 308.472,464.624Z" style="fill:rgb(8,23,27);fill-rule:nonzero;"/>
            <path d="M308.436,464.624C308.441,464.632 308.449,464.646 308.453,464.651C308.449,464.644 308.441,464.632 308.438,464.621C308.438,464.621 308.436,464.621 308.436,464.624Z" style="fill:rgb(8,23,27);fill-rule:nonzero;"/>
            <path d="M314.171,463.129C314.157,463.129 314.144,463.126 314.133,463.126C314.144,463.126 314.157,463.123 314.171,463.123L314.171,463.129Z" style="fill:rgb(169,72,36);fill-rule:nonzero;"/>
            <path d="M314.094,463.129C314.108,463.129 314.123,463.126 314.133,463.126C314.123,463.126 314.108,463.123 314.094,463.123L314.094,463.129Z" style="fill:rgb(169,72,36);fill-rule:nonzero;"/>
            <path d="M326.26,396.437C326.26,405.668 333.743,413.153 342.977,413.153C352.208,413.153 359.693,405.668 359.693,396.437C359.693,387.204 352.208,379.72 342.977,379.72C333.743,379.72 326.26,387.204 326.26,396.437Z" style="fill:rgb(176,91,43);fill-rule:nonzero;"/>
            <path d="M333.34,396.437C333.34,401.759 337.653,406.074 342.977,406.074C348.299,406.074 352.614,401.759 352.614,396.437C352.614,391.114 348.299,386.8 342.977,386.8C337.653,386.8 333.34,391.114 333.34,396.437Z" style="fill:rgb(74,27,17);fill-rule:nonzero;"/>
            <path d="M326.26,396.437C326.26,405.668 333.743,413.153 342.977,413.153C352.208,413.153 359.693,405.668 359.693,396.437C359.693,387.204 352.208,379.72 342.977,379.72C333.743,379.72 326.26,387.204 326.26,396.437Z" style="fill:rgb(138,96,60);fill-rule:nonzero;"/>
            <path d="M333.34,396.437C333.34,401.759 337.653,406.074 342.977,406.074C348.299,406.074 352.614,401.759 352.614,396.437C352.614,391.114 348.299,386.8 342.977,386.8C337.653,386.8 333.34,391.114 333.34,396.437Z" style="fill:rgb(195,153,108);fill-rule:nonzero;"/>
            <path d="M314.248,387.229L314.248,446.462C314.255,446.467 314.263,446.468 314.269,446.474L314.248,454.927L314.248,456.944L314.245,456.944L314.209,470.632" style="fill:rgb(245,158,43);fill-rule:nonzero;"/>
            <path d="M314.242,472.177L314.3,446.474" style="fill:none;fill-rule:nonzero;"/>
            <path d="M314.252,393.413L314.213,393.413L314.252,393.413Z" style="fill:rgb(74,27,17);fill-rule:nonzero;"/>
            <path d="M314.213,393.413L314.173,393.413L314.213,393.413Z" style="fill:rgb(74,27,17);fill-rule:nonzero;"/>
            <path d="M302.086,396.437C302.086,405.668 294.603,413.153 285.369,413.153C276.138,413.153 268.653,405.668 268.653,396.437C268.653,387.204 276.138,379.72 285.369,379.72C294.603,379.72 302.086,387.204 302.086,396.437Z" style="fill:rgb(176,91,43);fill-rule:nonzero;"/>
            <path d="M295.006,396.437C295.006,401.759 290.693,406.074 285.369,406.074C280.047,406.074 275.732,401.759 275.732,396.437C275.732,391.114 280.047,386.8 285.369,386.8C290.693,386.8 295.006,391.114 295.006,396.437Z" style="fill:rgb(74,27,17);fill-rule:nonzero;"/>
            <path d="M302.086,396.437C302.086,405.668 294.603,413.153 285.369,413.153C276.138,413.153 268.653,405.668 268.653,396.437C268.653,387.204 276.138,379.72 285.369,379.72C294.603,379.72 302.086,387.204 302.086,396.437Z" style="fill:rgb(138,96,60);fill-rule:nonzero;"/>
            <path d="M295.006,396.437C295.006,401.759 290.693,406.074 285.369,406.074C280.047,406.074 275.732,401.759 275.732,396.437C275.732,391.114 280.047,386.8 285.369,386.8C290.693,386.8 295.006,391.114 295.006,396.437Z" style="fill:rgb(195,153,108);fill-rule:nonzero;"/>
            <path d="M314.098,387.229L314.098,446.462C314.091,446.467 314.083,446.468 314.077,446.474L314.098,454.927L314.098,456.944L314.102,456.944L314.137,470.632" style="fill:rgb(245,158,43);fill-rule:nonzero;"/>
            <path d="M355.485,429.764C355.485,407.599 345.532,387.229 314.196,387.229L314.151,387.7L314.151,387.229C282.813,387.229 272.861,407.599 272.861,429.764C270.528,439.27 266.45,439.001 268.745,451.146C271.04,463.29 284.046,467.784 293.536,468.042L293.536,459.993C293.536,453.974 303.278,458.137 303.937,456.692C310.822,459.415 307.07,455.597 308.436,458.473C310.138,457.526 312.071,456.944 314.151,456.944L314.151,456.734L314.196,456.944C316.275,456.944 318.208,457.526 319.91,458.473C321.276,455.597 314.264,462.093 321.15,459.37C321.809,460.815 334.811,453.974 334.811,459.993L334.811,468.042C342.954,468.042 357.872,468.167 358.636,452.675C359.301,439.206 357.818,439.27 355.485,429.764Z" style="fill:rgb(138,96,60);fill-rule:nonzero;"/>
            <path d="M314.104,472.177L314.046,446.474" style="fill:none;fill-rule:nonzero;"/>
            <path d="M314.094,393.413L314.133,393.413L314.094,393.413Z" style="fill:rgb(74,27,17);fill-rule:nonzero;"/>
            <path d="M314.133,393.413L314.173,393.413L314.133,393.413Z" style="fill:rgb(74,27,17);fill-rule:nonzero;"/>
            <path d="M323.943,422.927C323.943,426.142 326.55,428.745 329.764,428.745C332.978,428.745 335.584,426.142 335.584,422.927C335.584,419.712 332.978,417.106 329.764,417.106C326.55,417.106 323.943,419.712 323.943,422.927Z" style="fill:rgb(59,62,67);fill-rule:nonzero;"/>
            <path d="M328.452,418.355C328.452,420.042 329.822,421.409 331.51,421.409C333.198,421.409 334.566,420.042 334.566,418.355C334.566,416.665 333.198,415.298 331.51,415.298C329.822,415.298 328.452,416.665 328.452,418.355Z" style="fill:white;fill-rule:nonzero;"/>
            <path d="M306.729,422.927C306.729,426.142 304.125,428.745 300.911,428.745C297.697,428.745 295.091,426.142 295.091,422.927C295.091,419.712 297.697,417.106 300.911,417.106C304.125,417.106 306.729,419.712 306.729,422.927Z" style="fill:rgb(59,62,67);fill-rule:nonzero;"/>
            <path d="M302.22,418.355C302.22,420.042 300.852,421.409 299.164,421.409C297.476,421.409 296.108,420.042 296.108,418.355C296.108,416.665 297.476,415.298 299.164,415.298C300.852,415.298 302.22,416.665 302.22,418.355Z" style="fill:white;fill-rule:nonzero;"/>
            <path d="M327.728,445.552C324.116,444.411 321.28,442.976 314.173,446.474C307.065,442.976 304.23,444.411 300.619,445.552C298.93,446.247 293.536,449.08 293.536,459.993C293.536,465.294 293.416,468.51 293.416,469.22C299.791,471.496 302.12,473.044 314.742,473.044C327.366,473.044 328.056,471.399 334.43,469.124C334.43,468.415 334.811,465.294 334.811,459.993C334.811,449.08 329.416,446.247 327.728,445.552Z" style="fill:rgb(244,219,189);fill-rule:nonzero;"/>
            <path d="M323.663,444.597C323.663,448.038 319.683,452.324 314.772,452.324C309.861,452.324 305.88,448.038 305.88,444.597C305.88,441.155 309.861,438.364 314.772,438.364C319.683,438.364 323.663,441.155 323.663,444.597Z" style="fill:rgb(59,62,67);fill-rule:nonzero;"/>
            <path d="M306.402,461.809C304.219,461.809 301.8,460.733 299.182,458.59C298.835,458.304 298.783,457.79 299.068,457.44C299.354,457.091 299.869,457.041 300.218,457.326C303.278,459.831 305.916,460.688 308.054,459.876C312.315,458.255 313.576,450.63 313.587,450.552C313.66,450.109 314.077,449.804 314.522,449.876C314.968,449.948 315.272,450.364 315.201,450.812C315.146,451.161 313.769,459.448 308.634,461.4C307.92,461.673 307.176,461.809 306.402,461.809Z" style="fill:rgb(59,62,67);fill-rule:nonzero;"/>
            <path d="M321.558,462.523C320.883,462.523 320.237,462.4 319.62,462.152C314.738,460.199 313.823,451.145 313.786,450.759C313.743,450.31 314.072,449.911 314.52,449.869C314.968,449.824 315.369,450.155 315.409,450.605C315.636,452.95 316.94,459.323 320.229,460.638C322.03,461.359 324.33,460.524 327.058,458.157C327.399,457.861 327.914,457.898 328.208,458.237C328.504,458.578 328.468,459.096 328.127,459.39C325.722,461.476 323.522,462.523 321.558,462.523Z" style="fill:rgb(59,62,67);fill-rule:nonzero;"/>
            <path d="M320.565,442.731C320.357,443.557 319.142,443.956 317.853,443.628C316.564,443.297 315.689,442.358 315.896,441.532C316.105,440.708 317.318,440.308 318.606,440.637C319.896,440.969 320.771,441.905 320.565,442.731Z" style="fill:white;fill-rule:nonzero;"/>
        </g>
    </g>
</svg>
