<?xml version="1.0" encoding="UTF-8" standalone="no"?>
<!DOCTYPE svg PUBLIC "-//W3C//DTD SVG 1.1//EN" "http://www.w3.org/Graphics/SVG/1.1/DTD/svg11.dtd">
<svg width="100%" height="100%" viewBox="0 0 155 155" version="1.1" xmlns="http://www.w3.org/2000/svg" xmlns:xlink="http://www.w3.org/1999/xlink" xml:space="preserve" xmlns:serif="http://www.serif.com/" style="fill-rule:evenodd;clip-rule:evenodd;stroke-linejoin:round;stroke-miterlimit:2;">
    <g transform="matrix(1,0,0,1,-58.097,-175.491028)">
        <g>
            <path d="M212.773,252.829C212.773,295.541 178.147,330.167 135.436,330.167C92.722,330.167 58.097,295.541 58.097,252.829C58.097,210.116 92.722,175.491 135.436,175.491C178.147,175.491 212.773,210.116 212.773,252.829Z" style="fill:rgb(97,165,162);fill-rule:nonzero;"/>
            <path d="M149.335,240.949C156.499,211.898 180.124,201.729 180.124,201.729C180.124,201.729 197.013,245.817 164.73,256.331L149.335,240.949Z" style="fill:rgb(213,96,39);fill-rule:nonzero;"/>
            <path d="M152.782,243.622C162.009,216.027 176.789,211.214 176.789,211.214C176.789,211.214 189.562,237.564 161.502,253.637L152.782,243.622Z" style="fill:rgb(244,219,189);fill-rule:nonzero;"/>
            <path d="M121.538,240.949C114.372,211.898 90.746,201.729 90.746,201.729C90.746,201.729 73.859,245.817 106.142,256.331L121.538,240.949Z" style="fill:rgb(213,96,39);fill-rule:nonzero;"/>
            <path d="M118.091,243.622C108.861,216.027 94.082,211.214 94.082,211.214C94.082,211.214 81.31,237.564 109.37,253.637L118.091,243.622Z" style="fill:rgb(244,219,189);fill-rule:nonzero;"/>
            <path d="M135.419,233.43L135.419,233.431C135.431,233.431 135.443,233.43 135.454,233.43L135.419,233.43Z" style="fill:rgb(234,99,47);fill-rule:nonzero;"/>
            <path d="M135.489,233.43L135.454,233.43C135.464,233.43 135.476,233.431 135.489,233.431L135.489,233.43Z" style="fill:rgb(169,72,36);fill-rule:nonzero;"/>
            <path d="M171.112,268.972C171.112,249.366 155.236,233.468 135.636,233.433L135.636,233.43C135.625,233.43 135.614,233.431 135.603,233.431C135.591,233.431 135.581,233.43 135.568,233.43L135.568,233.433L135.47,233.433L135.47,233.43C135.457,233.43 135.446,233.431 135.436,233.431C135.424,233.431 135.412,233.43 135.401,233.43L135.401,233.433C115.802,233.468 99.925,249.366 99.925,268.972C99.925,269.436 91.384,279.069 97.219,290.576C100.446,296.938 118.25,303.737 135.214,303.923C153.199,304.122 170.396,297.322 173.818,290.576C179.652,279.069 171.112,269.436 171.112,268.972Z" style="fill:rgb(236,105,42);fill-rule:nonzero;"/>
            <path d="M144.41,263.333C144.41,266.341 146.852,268.782 149.862,268.782C152.869,268.782 155.312,266.341 155.312,263.333C155.312,260.323 152.869,257.881 149.862,257.881C146.852,257.881 144.41,260.323 144.41,263.333Z" style="fill:rgb(59,62,67);fill-rule:nonzero;"/>
            <path d="M148.632,259.051C148.632,260.632 149.916,261.912 151.496,261.912C153.076,261.912 154.357,260.632 154.357,259.051C154.357,257.469 153.076,256.19 151.496,256.19C149.916,256.19 148.632,257.469 148.632,259.051Z" style="fill:white;fill-rule:nonzero;"/>
            <path d="M128.293,263.333C128.293,266.341 125.854,268.782 122.845,268.782C119.836,268.782 117.396,266.341 117.396,263.333C117.396,260.323 119.836,257.881 122.845,257.881C125.854,257.881 128.293,260.323 128.293,263.333Z" style="fill:rgb(59,62,67);fill-rule:nonzero;"/>
            <path d="M124.072,259.051C124.072,260.632 122.79,261.912 121.21,261.912C119.628,261.912 118.349,260.632 118.349,259.051C118.349,257.469 119.628,256.19 121.21,256.19C122.79,256.19 124.072,257.469 124.072,259.051Z" style="fill:white;fill-rule:nonzero;"/>
            <path d="M144.738,287.333C144.738,290.685 140.825,294.859 136,294.859C131.172,294.859 127.262,290.685 127.262,287.333C127.262,283.982 131.172,281.264 136,281.264C140.825,281.264 144.738,283.982 144.738,287.333Z" style="fill:rgb(59,62,67);fill-rule:nonzero;"/>
            <path d="M141.692,285.518C141.489,286.323 140.295,286.711 139.029,286.39C137.763,286.069 136.9,285.156 137.103,284.35C137.308,283.545 138.502,283.157 139.769,283.478C141.035,283.801 141.896,284.712 141.692,285.518Z" style="fill:white;fill-rule:nonzero;"/>
            <g>
                <clipPath id="_clip1">
                    <path d="M171.112,268.972C171.112,249.366 155.236,233.468 135.636,233.433L135.636,233.43C135.625,233.43 135.614,233.431 135.603,233.431C135.591,233.431 135.581,233.43 135.568,233.43L135.568,233.433L135.47,233.433L135.47,233.43C135.457,233.43 135.446,233.431 135.436,233.431C135.424,233.431 135.412,233.43 135.401,233.43L135.401,233.433C115.802,233.468 99.925,249.366 99.925,268.972C99.925,269.436 91.384,279.069 97.219,290.576C100.446,296.938 118.25,303.737 135.214,303.923C153.199,304.122 170.396,297.322 173.818,290.576C179.652,279.069 171.112,269.436 171.112,268.972Z"/>
                </clipPath>
                <g clip-path="url(#_clip1)">
                    <path d="M128.506,307.245C125.656,310.902 114.586,307.05 103.781,298.635C92.975,290.222 86.523,280.433 89.373,276.773C92.222,273.114 103.295,276.969 114.099,285.381C124.907,293.796 131.356,303.583 128.506,307.245Z" style="fill:rgb(244,219,189);fill-rule:nonzero;"/>
                    <path d="M142.714,305.776C145.549,309.234 156.86,305.413 167.977,297.24C179.094,289.07 185.809,279.642 182.975,276.182C180.14,272.725 168.827,276.547 157.71,284.717C146.595,292.89 139.88,302.316 142.714,305.776Z" style="fill:rgb(244,219,189);fill-rule:nonzero;"/>
                </g>
            </g>
        </g>
    </g>
</svg>
