<?xml version="1.0" encoding="UTF-8" standalone="no"?>
<!DOCTYPE svg PUBLIC "-//W3C//DTD SVG 1.1//EN" "http://www.w3.org/Graphics/SVG/1.1/DTD/svg11.dtd">
<svg width="100%" height="100%" viewBox="0 0 155 155" version="1.1" xmlns="http://www.w3.org/2000/svg" xmlns:xlink="http://www.w3.org/1999/xlink" xml:space="preserve" xmlns:serif="http://www.serif.com/" style="fill-rule:evenodd;clip-rule:evenodd;stroke-linejoin:round;stroke-miterlimit:2;">
    <g transform="matrix(1,0,0,1,-56.224065,-0.127014)">
        <g transform="matrix(1,0,0,1,-1.872935,0)">
            <path d="M212.773,77.465C212.773,120.177 178.147,154.803 135.436,154.803C92.722,154.803 58.097,120.177 58.097,77.465C58.097,34.752 92.722,0.127 135.436,0.127C178.147,0.127 212.773,34.752 212.773,77.465Z" style="fill:rgb(24,87,136);fill-rule:nonzero;"/>
            <path d="M196.465,75.42C196.465,83.669 189.777,90.355 181.529,90.355C173.28,90.355 166.592,83.669 166.592,75.42C166.592,67.17 173.28,60.483 181.529,60.483C189.777,60.483 196.465,67.17 196.465,75.42Z" style="fill:rgb(123,87,54);fill-rule:nonzero;"/>
            <path d="M191.103,75.42C191.103,80.708 186.818,84.994 181.529,84.994C176.241,84.994 171.954,80.708 171.954,75.42C171.954,70.131 176.241,65.845 181.529,65.845C186.818,65.845 191.103,70.131 191.103,75.42Z" style="fill:rgb(244,219,189);fill-rule:nonzero;"/>
            <path d="M104.278,73.51C104.278,81.758 97.59,88.445 89.342,88.445C81.093,88.445 74.406,81.758 74.406,73.51C74.406,65.26 81.093,58.573 89.342,58.573C97.59,58.573 104.278,65.26 104.278,73.51Z" style="fill:rgb(123,87,54);fill-rule:nonzero;"/>
            <path d="M98.917,73.51C98.917,78.797 94.629,83.084 89.342,83.084C84.053,83.084 79.768,78.797 79.768,73.51C79.768,68.221 84.053,63.935 89.342,63.935C94.629,63.935 98.917,68.221 98.917,73.51Z" style="fill:rgb(244,219,189);fill-rule:nonzero;"/>
            <path d="M182.014,77.314C182.014,103.226 161.009,124.23 135.098,124.23C109.187,124.23 88.183,103.226 88.183,77.314C88.183,51.403 109.187,30.398 135.098,30.398C161.009,30.398 182.014,51.403 182.014,77.314Z" style="fill:rgb(138,96,60);fill-rule:nonzero;"/>
            <path d="M174.804,73.812C174.846,62.53 165.734,53.349 154.452,53.306C145.629,53.272 138.09,58.838 135.204,66.662C132.375,58.817 124.88,53.194 116.057,53.161C104.774,53.118 95.593,62.23 95.55,73.512C95.507,84.794 104.619,93.975 115.901,94.019C116.213,94.019 116.521,94.011 116.83,93.998C115.503,97.452 114.748,100.973 114.748,104.105C114.748,115.386 123.894,124.532 135.176,124.532C146.459,124.532 155.605,115.386 155.605,104.105C155.605,101.019 154.964,97.555 153.808,94.149C153.971,94.154 154.133,94.163 154.296,94.163C165.58,94.206 174.76,85.095 174.804,73.812Z" style="fill:rgb(244,219,189);fill-rule:nonzero;"/>
            <path d="M143.641,74.314C143.641,80.144 148.366,84.867 154.195,84.867C160.025,84.867 164.748,80.144 164.748,74.314C164.748,68.485 160.025,63.761 154.195,63.761C148.366,63.761 143.641,68.485 143.641,74.314Z" style="fill:rgb(209,190,166);fill-rule:nonzero;"/>
            <path d="M147.489,74.4C147.489,77.868 150.3,80.678 153.767,80.678C157.234,80.678 160.046,77.868 160.046,74.4C160.046,70.933 157.234,68.121 153.767,68.121C150.3,68.121 147.489,70.933 147.489,74.4Z" style="fill:rgb(61,52,47);fill-rule:nonzero;"/>
            <path d="M152.871,69.218C152.871,70.869 154.208,72.207 155.859,72.207C157.511,72.207 158.851,70.869 158.851,69.218C158.851,67.566 157.511,66.228 155.859,66.228C154.208,66.228 152.871,67.566 152.871,69.218Z" style="fill:white;fill-rule:nonzero;"/>
            <path d="M126.914,74.314C126.914,80.144 122.191,84.867 116.362,84.867C110.532,84.867 105.808,80.144 105.808,74.314C105.808,68.485 110.532,63.761 116.362,63.761C122.191,63.761 126.914,68.485 126.914,74.314Z" style="fill:rgb(209,190,166);fill-rule:nonzero;"/>
            <path d="M123.067,74.4C123.067,77.868 120.256,80.678 116.789,80.678C113.322,80.678 110.51,77.868 110.51,74.4C110.51,70.933 113.322,68.121 116.789,68.121C120.256,68.121 123.067,70.933 123.067,74.4Z" style="fill:rgb(61,52,47);fill-rule:nonzero;"/>
            <path d="M117.685,69.218C117.685,70.869 116.348,72.207 114.697,72.207C113.045,72.207 111.707,70.869 111.707,69.218C111.707,67.566 113.045,66.228 114.697,66.228C116.348,66.228 117.685,67.566 117.685,69.218Z" style="fill:white;fill-rule:nonzero;"/>
            <path d="M139.708,108.527C139.708,110.756 137.901,112.564 135.67,112.564C133.44,112.564 131.634,110.756 131.634,108.527C131.634,106.297 133.44,104.489 135.67,104.489C137.901,104.489 139.708,106.297 139.708,108.527Z" style="fill:rgb(61,52,47);fill-rule:nonzero;"/>
        </g>
    </g>
</svg>
