<?xml version="1.0" encoding="UTF-8" standalone="no"?>
<!DOCTYPE svg PUBLIC "-//W3C//DTD SVG 1.1//EN" "http://www.w3.org/Graphics/SVG/1.1/DTD/svg11.dtd">
<svg width="100%" height="100%" viewBox="0 0 155 155" version="1.1" xmlns="http://www.w3.org/2000/svg" xmlns:xlink="http://www.w3.org/1999/xlink" xml:space="preserve" xmlns:serif="http://www.serif.com/" style="fill-rule:evenodd;clip-rule:evenodd;stroke-linejoin:round;stroke-miterlimit:2;">
    <g transform="matrix(1,0,0,1,-236.401993,-0.127014)">
        <g>
            <path d="M391.077,77.465C391.077,120.177 356.452,154.803 313.74,154.803C271.027,154.803 236.402,120.177 236.402,77.465C236.402,34.752 271.027,0.127 313.74,0.127C356.452,0.127 391.077,34.752 391.077,77.465Z" style="fill:rgb(241,89,43);fill-rule:nonzero;"/>
            <path d="M287.256,55.569C282.338,51.83 286.588,39.954 288.084,41.203C289.108,42.056 291.71,46.653 293.359,49.682C291.101,51.4 289.051,53.376 287.256,55.569ZM298.888,45.896C297.36,43.186 292.917,35.995 287.526,33.701C280.972,30.911 275.879,54.227 283.734,60.742C283.642,60.907 283.561,61.08 283.47,61.246C290.333,58.432 295.628,52.524 298.888,45.896Z" style="fill:rgb(138,96,60);fill-rule:nonzero;"/>
            <path d="M286.901,56.927C289.032,54.322 291.466,51.974 294.149,49.935C292.19,46.336 289.101,40.876 287.883,39.862C286.105,38.38 281.058,52.485 286.901,56.927Z" style="fill:rgb(59,62,67);fill-rule:nonzero;"/>
            <path d="M338.076,49.682C339.724,46.653 342.327,42.056 343.35,41.203C344.846,39.954 349.096,51.83 344.178,55.569C342.383,53.376 340.333,51.4 338.076,49.682ZM347.963,61.246C347.874,61.08 347.792,60.907 347.7,60.742C355.555,54.227 350.463,30.911 343.909,33.701C338.519,35.995 334.075,43.186 332.546,45.896C335.805,52.524 341.101,58.432 347.963,61.246Z" style="fill:rgb(138,96,60);fill-rule:nonzero;"/>
            <path d="M344.534,56.927C342.403,54.322 339.967,51.974 337.287,49.935C339.245,46.336 342.334,40.876 343.551,39.862C345.329,38.38 350.375,52.485 344.534,56.927Z" style="fill:rgb(59,62,67);fill-rule:nonzero;"/>
            <path d="M314.077,39.664L314.077,39.666C314.089,39.666 314.103,39.664 314.115,39.664L314.077,39.664Z" style="fill:rgb(234,99,47);fill-rule:nonzero;"/>
            <path d="M314.153,39.664L314.115,39.664C314.126,39.664 314.139,39.666 314.153,39.666L314.153,39.664Z" style="fill:rgb(169,72,36);fill-rule:nonzero;"/>
            <path d="M353.507,78.929C353.507,57.269 335.967,39.707 314.317,39.667L314.317,39.664C314.304,39.664 314.291,39.666 314.277,39.666C314.265,39.666 314.255,39.664 314.242,39.664L314.242,39.667L314.131,39.667L314.131,39.664C314.119,39.664 314.106,39.666 314.094,39.666C314.081,39.666 314.07,39.664 314.056,39.664L314.056,39.667C292.406,39.707 274.866,57.269 274.866,78.929C274.866,79.44 265.431,90.082 271.878,102.793C275.441,109.822 294.489,109.177 313.229,109.383C333.098,109.601 352.716,110.247 356.496,102.793C362.941,90.082 353.507,79.44 353.507,78.929Z" style="fill:rgb(138,96,60);fill-rule:nonzero;"/>
            <path d="M320.259,95.079C320.259,109.102 308.89,120.469 294.867,120.469C280.843,120.469 269.474,109.102 269.474,95.079C269.474,81.055 280.843,69.686 294.867,69.686C308.89,69.686 320.259,81.055 320.259,95.079Z" style="fill:rgb(138,96,60);fill-rule:nonzero;"/>
            <path d="M360.161,96.068C360.161,110.091 348.792,121.46 334.768,121.46C320.745,121.46 309.375,110.091 309.375,96.068C309.375,82.044 320.745,70.675 334.768,70.675C348.792,70.675 360.161,82.044 360.161,96.068Z" style="fill:rgb(138,96,60);fill-rule:nonzero;"/>
            <path d="M294.232,95.757C294.06,95.757 293.888,95.693 293.755,95.564C293.663,95.474 284.16,86.481 257.23,82.367C256.858,82.311 256.604,81.963 256.66,81.591C256.717,81.22 257.073,80.97 257.436,81.021C284.869,85.212 294.319,94.209 294.708,94.59C294.975,94.854 294.98,95.283 294.717,95.552C294.584,95.688 294.408,95.757 294.232,95.757Z" style="fill:rgb(61,52,47);fill-rule:nonzero;"/>
            <path d="M292.646,99.291C292.531,99.291 292.416,99.263 292.309,99.203C292.198,99.139 280.724,92.838 253.635,95.66C253.272,95.696 252.926,95.429 252.887,95.054C252.848,94.681 253.122,94.345 253.495,94.307C281.1,91.429 292.51,97.75 292.985,98.021C293.31,98.207 293.422,98.623 293.237,98.948C293.113,99.168 292.881,99.291 292.646,99.291Z" style="fill:rgb(61,52,47);fill-rule:nonzero;"/>
            <path d="M253.274,108.888C252.991,108.888 252.725,108.71 252.629,108.428C252.508,108.073 252.698,107.685 253.052,107.564C279.304,98.572 291.846,102.166 292.369,102.325C292.727,102.434 292.932,102.813 292.823,103.172C292.715,103.532 292.342,103.736 291.976,103.628C291.852,103.59 279.263,100.026 253.495,108.851C253.42,108.876 253.346,108.888 253.274,108.888Z" style="fill:rgb(61,52,47);fill-rule:nonzero;"/>
            <path d="M322.358,89.525C322.358,92.576 318.796,96.374 314.404,96.374C310.012,96.374 306.453,92.576 306.453,89.525C306.453,86.476 310.012,84.003 314.404,84.003C318.796,84.003 322.358,86.476 322.358,89.525Z" style="fill:rgb(59,62,67);fill-rule:nonzero;"/>
            <path d="M306.114,105.706C303.933,105.706 301.517,104.63 298.901,102.49C298.551,102.206 298.5,101.691 298.787,101.342C299.071,100.995 299.587,100.942 299.934,101.228C302.993,103.73 305.626,104.587 307.763,103.775C312.02,102.156 313.283,94.537 313.293,94.461C313.363,94.016 313.78,93.713 314.228,93.784C314.672,93.856 314.976,94.274 314.906,94.718C314.849,95.07 313.473,103.347 308.344,105.299C307.629,105.57 306.887,105.706 306.114,105.706Z" style="fill:rgb(59,62,67);fill-rule:nonzero;"/>
            <path d="M321.255,106.421C320.583,106.421 319.937,106.298 319.32,106.051C314.441,104.099 313.528,95.052 313.49,94.667C313.447,94.218 313.777,93.82 314.224,93.778C314.672,93.734 315.072,94.064 315.116,94.513C315.339,96.855 316.642,103.224 319.928,104.536C321.729,105.257 324.024,104.422 326.751,102.058C327.09,101.762 327.606,101.8 327.903,102.14C328.196,102.481 328.161,102.996 327.82,103.292C325.417,105.373 323.218,106.421 321.255,106.421Z" style="fill:rgb(59,62,67);fill-rule:nonzero;"/>
            <path d="M319.584,87.873C319.4,88.605 318.313,88.959 317.162,88.667C316.008,88.374 315.225,87.543 315.409,86.811C315.595,86.08 316.683,85.725 317.834,86.017C318.987,86.312 319.77,87.141 319.584,87.873Z" style="fill:white;fill-rule:nonzero;"/>
            <path d="M333.248,97.118C333.071,97.118 332.894,97.05 332.761,96.913C332.5,96.644 332.502,96.215 332.771,95.952C333.161,95.57 342.612,86.574 370.042,82.383C370.415,82.329 370.761,82.581 370.819,82.953C370.875,83.324 370.621,83.671 370.249,83.729C343.319,87.842 333.817,96.835 333.723,96.925C333.591,97.054 333.419,97.118 333.248,97.118Z" style="fill:rgb(61,52,47);fill-rule:nonzero;"/>
            <path d="M334.833,100.652C334.597,100.652 334.367,100.53 334.242,100.31C334.055,99.985 334.167,99.569 334.495,99.382C334.966,99.112 346.385,92.791 373.985,95.668C374.358,95.707 374.63,96.042 374.59,96.415C374.553,96.79 374.217,97.058 373.844,97.021C346.674,94.195 335.282,100.498 335.169,100.563C335.064,100.624 334.947,100.652 334.833,100.652Z" style="fill:rgb(61,52,47);fill-rule:nonzero;"/>
            <path d="M374.207,110.249C374.131,110.249 374.058,110.237 373.985,110.213C348.219,101.387 335.627,104.953 335.501,104.99C335.137,105.099 334.763,104.893 334.656,104.533C334.547,104.174 334.75,103.794 335.11,103.686C335.632,103.529 348.172,99.934 374.427,108.925C374.781,109.046 374.971,109.434 374.849,109.79C374.752,110.072 374.489,110.249 374.207,110.249Z" style="fill:rgb(61,52,47);fill-rule:nonzero;"/>
            <path d="M305.866,61.304C300.807,59.83 293.36,59.683 289.14,69.431C284.921,79.178 285.444,87.35 289.14,89.137C292.836,90.925 310.966,84.796 312.499,77.901C314.031,71.007 312.002,63.091 305.866,61.304Z" style="fill:rgb(195,153,108);fill-rule:nonzero;"/>
            <path d="M318.27,77.902C319.803,84.796 337.934,90.925 341.629,89.137C345.327,87.35 345.848,79.178 341.629,69.432C337.411,59.683 329.962,59.831 324.904,61.304C318.768,63.092 316.739,71.008 318.27,77.902Z" style="fill:rgb(195,153,108);fill-rule:nonzero;"/>
            <path d="M324.008,72.699C324.008,76.022 326.705,78.718 330.03,78.718C333.354,78.718 336.051,76.022 336.051,72.699C336.051,69.373 333.354,66.677 330.03,66.677C326.705,66.677 324.008,69.373 324.008,72.699Z" style="fill:rgb(59,62,67);fill-rule:nonzero;"/>
            <path d="M328.673,67.969C328.673,69.716 330.09,71.128 331.835,71.128C333.582,71.128 334.998,69.716 334.998,67.969C334.998,66.222 333.582,64.807 331.835,64.807C330.09,64.807 328.673,66.222 328.673,67.969Z" style="fill:white;fill-rule:nonzero;"/>
            <path d="M306.203,72.699C306.203,76.022 303.511,78.718 300.186,78.718C296.861,78.718 294.166,76.022 294.166,72.699C294.166,69.373 296.861,66.677 300.186,66.677C303.511,66.677 306.203,69.373 306.203,72.699Z" style="fill:rgb(59,62,67);fill-rule:nonzero;"/>
            <path d="M301.54,67.969C301.54,69.716 300.125,71.128 298.379,71.128C296.633,71.128 295.219,69.716 295.219,67.969C295.219,66.222 296.633,64.807 298.379,64.807C300.125,64.807 301.54,66.222 301.54,67.969Z" style="fill:white;fill-rule:nonzero;"/>
        </g>
    </g>
</svg>
