<?xml version="1.0" encoding="UTF-8" standalone="no"?>
<!DOCTYPE svg PUBLIC "-//W3C//DTD SVG 1.1//EN" "http://www.w3.org/Graphics/SVG/1.1/DTD/svg11.dtd">
<svg width="100%" height="100%" viewBox="0 0 155 155" version="1.1" xmlns="http://www.w3.org/2000/svg" xmlns:xlink="http://www.w3.org/1999/xlink" xml:space="preserve" xmlns:serif="http://www.serif.com/" style="fill-rule:evenodd;clip-rule:evenodd;stroke-linejoin:round;stroke-miterlimit:2;">
    <g transform="matrix(1,0,0,1,-414.957001,-0.127014)">
        <g>
            <path d="M569.632,77.465C569.632,120.177 535.007,154.803 492.293,154.803C449.582,154.803 414.957,120.177 414.957,77.465C414.957,34.752 449.582,0.127 492.293,0.127C535.007,0.127 569.632,34.752 569.632,77.465Z" style="fill:rgb(216,212,36);fill-rule:nonzero;"/>
            <path d="M542.927,75.136C562.756,111.803 534.613,123.647 488.951,123.647C436.939,123.647 427.342,108.93 440.544,74.727C451.873,45.375 471.957,41.77 489.98,41.77C508.002,41.77 528.677,48.787 542.927,75.136Z" style="fill:rgb(224,220,211);fill-rule:nonzero;"/>
            <path d="M539.219,101.246C534.52,109.041 522.064,111.159 507.388,112.703C499.593,108.006 498.041,80.274 499.961,71.379C502.023,61.853 511.464,54.558 524.037,64.476C531.183,70.111 543.917,93.452 539.219,101.246Z" style="fill:rgb(186,183,176);fill-rule:nonzero;"/>
            <path d="M445.218,102.533C449.915,110.328 468.937,112.576 478.333,113.605C486.13,108.908 488.935,82.064 486.445,69.964C484.613,61.049 471.126,51.425 459.025,64.685C446.923,77.945 440.519,94.74 445.218,102.533Z" style="fill:rgb(186,183,176);fill-rule:nonzero;"/>
            <path d="M508.306,79.151C508.306,83.745 512.031,87.466 516.623,87.466C521.214,87.466 524.937,83.745 524.937,79.151C524.937,74.559 521.214,70.835 516.623,70.835C512.031,70.835 508.306,74.559 508.306,79.151Z" style="fill:white;fill-rule:nonzero;"/>
            <path d="M512.414,79.221C512.414,81.546 514.296,83.43 516.623,83.43C518.947,83.43 520.831,81.546 520.831,79.221C520.831,76.896 518.947,75.013 516.623,75.013C514.296,75.013 512.414,76.896 512.414,79.221Z" style="fill:rgb(59,62,67);fill-rule:nonzero;"/>
            <path d="M515.674,75.915C515.674,77.135 516.663,78.125 517.883,78.125C519.104,78.125 520.094,77.135 520.094,75.915C520.094,74.694 519.104,73.705 517.883,73.705C516.663,73.705 515.674,74.694 515.674,75.915Z" style="fill:white;fill-rule:nonzero;"/>
            <path d="M476.172,77.046C476.172,81.639 472.45,85.362 467.857,85.362C463.265,85.362 459.542,81.639 459.542,77.046C459.542,72.455 463.265,68.73 467.857,68.73C472.45,68.73 476.172,72.455 476.172,77.046Z" style="fill:white;fill-rule:nonzero;"/>
            <path d="M472.066,77.117C472.066,79.441 470.182,81.325 467.857,81.325C465.534,81.325 463.648,79.441 463.648,77.117C463.648,74.792 465.534,72.908 467.857,72.908C470.182,72.908 472.066,74.792 472.066,77.117Z" style="fill:rgb(59,62,67);fill-rule:nonzero;"/>
            <path d="M468.806,73.811C468.806,75.032 467.816,76.02 466.594,76.02C465.375,76.02 464.385,75.032 464.385,73.811C464.385,72.588 465.375,71.599 466.594,71.599C467.816,71.599 468.806,72.588 468.806,73.811Z" style="fill:white;fill-rule:nonzero;"/>
            <path d="M519.289,103.822C519.289,112.353 503.285,119.269 489.457,119.269C475.628,119.269 464.419,112.353 464.419,103.822C464.419,95.29 475.628,88.373 489.457,88.373C503.285,88.373 519.289,95.29 519.289,103.822Z" style="fill:white;fill-rule:nonzero;"/>
            <path d="M502.242,102.793C502.242,106.779 497.589,111.739 491.853,111.739C486.116,111.739 481.466,106.779 481.466,102.793C481.466,98.81 486.116,95.58 491.853,95.58C497.589,95.58 502.242,98.81 502.242,102.793Z" style="fill:rgb(59,62,67);fill-rule:nonzero;"/>
            <path d="M498.62,100.633C498.377,101.59 496.959,102.054 495.453,101.671C493.948,101.288 492.924,100.204 493.166,99.248C493.41,98.292 494.828,97.828 496.333,98.21C497.839,98.593 498.863,99.678 498.62,100.633Z" style="fill:white;fill-rule:nonzero;"/>
            <path d="M450.828,31.813C443.275,35.459 451.103,59.62 451.103,59.62L476.688,44.53C476.688,44.53 458.382,28.167 450.828,31.813Z" style="fill:rgb(224,220,211);fill-rule:nonzero;"/>
            <path d="M453.91,35.352C448.835,37.802 454.097,54.035 454.097,54.035L471.288,43.897C471.288,43.897 458.986,32.901 453.91,35.352Z" style="fill:rgb(186,183,176);fill-rule:nonzero;"/>
            <path d="M533.652,31.813C541.204,35.459 533.375,59.62 533.375,59.62L507.792,44.53C507.792,44.53 526.099,28.167 533.652,31.813Z" style="fill:rgb(224,220,211);fill-rule:nonzero;"/>
            <path d="M530.568,35.352C535.644,37.802 530.384,54.035 530.384,54.035L513.193,43.897C513.193,43.897 525.495,32.901 530.568,35.352Z" style="fill:rgb(186,183,176);fill-rule:nonzero;"/>
        </g>
    </g>
</svg>
